<?xml version="1.0" encoding="UTF-8" standalone="no"?>
<!DOCTYPE svg PUBLIC "-//W3C//DTD SVG 20010904//EN"
              "http://www.w3.org/TR/2001/REC-SVG-20010904/DTD/svg10.dtd">

<svg xmlns="http://www.w3.org/2000/svg"
     width="5.36458in" height="6.07292in"
     viewBox="0 0 515 583">
  <path id="Selection"
        fill="#A08D9E" stroke="#A08D9E" stroke-width="1"
        d="M 259.05,8.96
           C 265.38,9.20 265.92,13.66 266.00,19.00
             266.00,19.00 266.00,76.00 266.00,76.00
             266.01,78.94 265.53,82.97 268.31,84.83
             269.95,85.92 282.93,86.77 286.00,87.15
             286.00,87.15 317.00,93.86 317.00,93.86
             366.98,108.08 412.57,137.42 445.20,178.00
             481.82,223.57 500.68,278.68 500.00,337.00
             500.00,337.00 499.09,347.00 499.09,347.00
             495.60,396.87 479.04,443.11 448.53,482.99
             434.10,501.83 416.32,517.91 397.00,531.58
             376.09,546.37 352.60,557.40 328.00,564.42
             312.11,568.96 290.45,573.97 274.00,574.00
             274.00,574.00 255.00,574.96 255.00,574.96
             255.00,574.96 247.00,574.09 247.00,574.09
             247.00,574.09 212.00,570.56 212.00,570.56
             181.19,565.60 146.84,550.22 121.00,533.00
             111.26,526.51 101.70,519.69 93.00,511.83
             53.08,475.78 26.09,426.80 16.26,374.00
             12.76,355.22 12.78,337.96 13.00,319.00
             13.18,303.99 17.54,283.54 21.58,269.00
             21.58,269.00 25.03,256.00 25.03,256.00
             34.06,227.50 50.09,199.03 69.08,176.00
             101.50,136.69 151.85,102.98 202.00,91.79
             213.77,89.17 227.98,86.06 240.00,86.00
             243.12,85.99 250.23,86.46 252.69,84.83
             255.47,82.97 254.99,78.94 255.00,76.00
             255.00,76.00 255.00,17.00 255.00,17.00
             255.09,12.63 254.99,11.05 259.05,8.96 Z
           M 255.00,98.00
           C 255.00,98.00 245.00,98.00 245.00,98.00
             235.54,98.01 224.35,99.89 215.00,101.58
             164.04,110.78 117.83,139.40 83.85,178.00
             71.81,191.67 60.14,207.71 51.86,224.00
             37.31,252.66 28.22,283.99 25.17,316.00
             25.17,316.00 24.00,332.00 24.00,332.00
             34.53,324.43 30.88,321.99 31.00,311.00
             31.11,301.66 33.60,292.98 38.46,285.00
             43.00,277.54 49.99,270.33 57.00,265.16
             57.00,265.16 69.40,256.47 69.40,256.47
             71.66,253.73 71.64,246.65 72.52,243.00
             73.96,237.06 77.79,230.79 82.17,226.58
             86.54,222.38 93.00,217.26 99.00,215.81
             104.01,214.59 107.11,217.63 105.83,220.90
             104.69,223.83 98.71,226.38 96.00,228.06
             90.48,231.51 87.71,234.08 84.82,240.00
             81.23,247.36 81.01,262.59 81.00,271.00
             80.98,281.40 79.46,281.65 77.00,291.00
             79.20,289.42 92.25,278.47 93.40,276.83
             95.51,273.83 94.83,270.45 95.17,267.00
             95.63,262.21 96.64,257.38 98.67,253.00
             99.86,250.44 102.23,245.96 105.79,247.40
             107.29,248.01 108.14,249.51 108.39,251.04
             108.74,253.23 105.66,262.75 105.00,266.00
             110.80,264.35 113.97,260.58 118.99,257.38
             121.32,255.90 124.11,253.98 126.61,256.35
             129.24,258.84 126.79,261.85 124.86,263.83
             120.99,267.81 111.98,272.40 110.20,277.00
             109.04,280.02 110.92,282.21 110.92,287.00
             110.92,291.79 108.52,298.03 105.90,301.99
             101.06,309.29 92.86,313.75 85.00,317.13
             81.05,318.82 75.41,320.27 72.42,323.39
             68.55,327.40 68.37,335.29 65.91,338.77
             64.48,340.81 61.79,342.35 59.60,340.36
             57.63,338.57 57.89,333.46 58.18,331.00
             59.47,320.30 66.70,314.19 69.00,305.00
             60.59,310.63 43.95,326.01 37.90,334.00
             35.57,337.07 30.52,344.21 30.35,348.00
             30.22,351.17 32.85,355.28 34.42,358.00
             37.27,362.91 45.66,377.66 49.00,381.00
             63.82,358.78 72.25,340.53 96.00,325.44
             101.34,322.04 111.99,317.03 118.00,314.81
             120.75,314.08 124.96,312.31 127.45,314.81
             129.50,316.51 129.07,319.56 128.59,322.00
             127.76,326.14 124.45,336.13 122.69,340.00
             115.34,356.18 103.73,367.21 87.00,373.31
             87.00,373.31 65.10,379.15 65.10,379.15
             60.92,380.74 55.67,389.56 56.55,394.00
             57.14,396.99 62.60,405.97 64.40,409.00
             64.40,409.00 76.00,429.00 76.00,429.00
             76.00,412.03 78.43,403.13 86.26,388.00
             88.02,384.60 92.30,375.71 97.01,376.68
             101.26,377.57 106.10,386.36 108.30,390.00
             110.54,393.70 111.88,396.84 113.00,401.00
             118.08,397.36 128.43,385.34 132.98,384.66
             140.35,383.55 141.18,401.14 140.91,406.00
             140.14,419.53 135.99,433.51 128.77,445.00
             124.69,451.51 119.58,455.54 117.00,461.00
             129.67,461.01 144.50,463.65 157.00,466.00
             157.00,466.00 157.00,432.00 157.00,432.00
             153.13,432.56 145.89,431.94 148.74,426.00
             149.69,424.04 155.18,418.82 157.00,417.00
             157.00,417.00 175.00,399.00 175.00,399.00
             175.00,399.00 210.00,364.00 210.00,364.00
             210.00,364.00 233.04,341.56 233.04,341.56
             233.04,341.56 250.00,325.00 250.00,325.00
             252.09,322.92 256.03,318.52 259.00,318.16
             262.02,317.80 265.89,321.28 268.00,323.17
             268.00,323.17 288.00,343.00 288.00,343.00
             288.00,343.00 328.00,382.99 328.00,382.99
             328.00,382.99 354.00,408.00 354.00,408.00
             354.00,408.00 370.58,425.00 370.58,425.00
             372.83,428.50 371.03,431.91 366.98,432.11
             365.64,432.17 363.34,431.38 362.00,431.00
             362.00,431.00 362.00,470.00 362.00,470.00
             362.00,470.00 417.00,465.00 417.00,465.00
             419.77,464.98 425.11,465.21 427.19,463.21
             428.81,461.66 429.79,457.20 430.42,455.00
             431.68,450.58 437.00,432.37 436.52,429.00
             436.01,425.49 431.04,418.39 429.00,415.00
             429.00,415.00 414.42,391.00 414.42,391.00
             412.61,388.09 409.48,382.51 406.82,380.60
             404.08,378.63 401.15,379.14 398.00,378.83
             394.38,378.47 386.40,377.03 383.00,375.91
             365.45,370.12 351.08,355.84 342.15,340.00
             340.32,336.74 334.95,326.45 335.11,323.06
             335.28,319.44 338.02,319.04 341.00,319.31
             346.62,319.81 352.80,322.32 358.00,324.40
             369.89,329.16 385.64,339.38 395.00,348.09
             395.00,348.09 414.00,368.00 414.00,368.00
             414.00,354.82 410.41,343.86 399.00,335.99
             392.51,331.51 386.84,330.87 383.04,329.03
             380.99,328.04 378.86,326.52 378.86,323.98
             378.86,318.38 385.42,319.07 389.00,320.02
             398.63,322.56 407.17,327.51 413.82,335.00
             423.94,346.43 425.17,356.54 425.00,371.00
             425.00,371.00 424.28,384.00 424.28,384.00
             424.90,387.42 427.94,391.88 429.72,395.00
             429.72,395.00 441.00,414.00 441.00,414.00
             441.00,414.00 446.00,365.00 446.00,365.00
             446.00,362.65 446.15,359.19 445.44,357.00
             444.43,353.87 440.23,348.86 438.15,346.00
             438.15,346.00 426.67,329.00 426.67,329.00
             426.67,329.00 417.20,314.00 417.20,314.00
             415.86,311.81 414.28,308.61 411.79,307.61
             411.79,307.61 392.00,309.00 392.00,309.00
             392.00,309.00 383.00,309.00 383.00,309.00
             359.60,308.96 339.77,295.93 325.67,278.00
             322.82,274.37 315.73,264.12 314.41,260.00
             311.84,251.97 324.37,249.31 330.00,247.89
             347.79,243.43 367.50,242.45 385.00,248.70
             399.50,253.87 412.27,264.91 418.69,279.00
             424.42,291.58 423.58,301.79 424.51,305.00
             425.42,308.19 429.62,313.88 431.58,317.00
             435.53,323.31 441.79,334.32 447.00,339.00
             447.00,339.00 446.00,324.00 446.00,324.00
             446.00,324.00 446.00,305.00 446.00,305.00
             446.00,305.00 444.17,280.00 444.17,280.00
             443.19,270.19 442.25,258.88 437.60,250.00
             435.39,245.78 432.26,242.48 429.07,239.00
             426.47,236.17 423.35,232.41 420.00,230.52
             415.06,227.72 402.35,231.17 396.00,230.52
             376.20,228.55 359.87,217.88 348.16,202.00
             340.30,191.35 337.68,183.32 333.47,171.00
             332.59,167.69 330.10,161.69 333.47,159.13
             335.61,156.89 340.42,158.54 343.00,159.13
             352.59,162.33 357.91,164.30 367.00,168.64
             380.64,175.14 396.31,186.39 407.00,197.00
             407.00,197.00 425.00,217.00 425.00,217.00
             425.00,217.00 431.86,195.00 431.86,195.00
             432.70,192.05 434.23,188.01 433.40,185.00
             432.32,181.07 426.88,175.89 424.00,173.00
             424.00,173.00 401.00,151.59 401.00,151.59
             377.14,131.60 351.36,118.45 322.00,108.67
             305.64,103.22 283.20,98.05 266.00,98.00
             266.00,98.00 266.00,168.00 266.00,168.00
             266.01,173.38 265.51,176.31 270.11,179.96
             275.13,183.94 280.54,184.70 280.71,188.13
             280.80,189.98 278.19,194.21 277.25,196.00
             273.99,202.23 269.94,208.19 268.00,215.00
             261.98,213.29 257.25,214.72 254.10,212.98
             250.22,210.82 246.00,200.25 243.57,196.00
             242.62,194.33 240.33,190.84 240.13,189.05
             239.63,184.72 245.12,184.55 250.89,179.96
             255.49,176.31 254.99,173.38 255.00,168.00
             255.00,168.00 255.00,98.00 255.00,98.00 Z
           M 301.31,129.03
           C 309.37,126.25 310.22,134.75 305.85,136.92
             302.14,138.76 296.62,134.15 301.31,129.03 Z
           M 227.00,141.00
           C 226.52,142.37 226.62,142.87 225.43,144.01
             222.93,146.39 216.43,147.08 208.00,154.30
             192.21,167.82 186.92,190.82 200.39,208.00
             205.11,214.02 211.78,219.60 219.00,222.29
             221.60,223.26 229.43,224.69 230.29,227.31
             231.00,229.45 228.52,230.82 226.95,231.52
             224.01,232.82 215.25,234.05 212.00,233.82
             176.56,231.24 156.43,190.37 176.77,161.00
             184.82,149.37 198.80,141.12 213.00,140.09
             218.82,139.67 221.56,140.56 227.00,141.00 Z
           M 348.00,173.00
           C 346.94,178.33 352.13,187.40 354.93,192.00
             363.10,205.42 377.48,215.74 393.00,218.77
             393.00,218.77 411.00,218.77 411.00,218.77
             407.83,213.09 402.73,208.68 398.00,204.00
             385.37,191.52 364.83,178.88 348.00,173.00 Z
           M 209.15,181.10
           C 211.63,180.16 214.15,179.52 216.57,181.10
             220.06,183.56 219.42,189.78 215.85,191.82
             209.79,195.29 201.88,187.47 209.15,181.10 Z
           M 268.00,192.00
           C 266.61,191.05 263.37,188.60 262.00,188.14
             258.46,186.94 253.74,190.14 254.13,194.01
             254.45,197.20 258.72,203.72 261.00,206.00
             261.00,206.00 268.00,192.00 268.00,192.00 Z
           M 120.22,192.78
           C 128.27,191.55 129.62,200.33 123.95,202.38
             118.34,204.41 114.21,196.98 120.22,192.78 Z
           M 443.00,199.00
           C 443.00,199.00 437.14,215.00 437.14,215.00
             437.14,215.00 434.45,225.00 434.45,225.00
             434.45,225.00 439.00,235.00 439.00,235.00
             439.00,235.00 441.00,235.00 441.00,235.00
             441.00,235.00 445.37,215.00 445.37,215.00
             445.37,215.00 447.39,205.00 447.39,205.00
             447.39,205.00 443.00,199.00 443.00,199.00 Z
           M 315.31,207.04
           C 323.27,204.48 324.08,212.65 319.77,214.72
             316.19,216.44 310.58,212.16 315.31,207.04 Z
           M 457.00,217.00
           C 457.00,217.00 452.58,235.00 452.58,235.00
             452.58,235.00 450.39,248.00 450.39,248.00
             450.39,248.00 455.00,276.00 455.00,276.00
             455.00,276.00 463.63,267.00 463.63,267.00
             463.63,267.00 472.39,253.00 472.39,253.00
             472.39,253.00 469.28,242.00 469.28,242.00
             469.28,242.00 457.00,217.00 457.00,217.00 Z
           M 156.06,229.78
           C 165.62,228.44 165.25,238.42 159.89,240.38
             154.33,242.42 147.99,234.54 156.06,229.78 Z
           M 239.31,252.04
           C 246.76,249.82 247.06,257.91 242.86,259.34
             239.30,260.56 234.97,256.73 239.31,252.04 Z
           M 382.00,275.00
           C 379.73,270.21 368.96,257.45 364.00,255.89
             361.69,255.00 355.95,255.94 353.00,255.89
             353.00,255.89 364.00,270.00 364.00,270.00
             364.00,270.00 337.00,274.00 337.00,274.00
             338.96,276.73 341.47,280.35 345.00,281.08
             346.93,281.48 353.45,279.54 356.00,279.08
             356.00,279.08 372.00,276.70 372.00,276.70
             372.00,276.70 382.00,275.00 382.00,275.00 Z
           M 350.00,266.00
           C 344.25,254.12 336.91,258.60 327.00,260.00
             330.57,267.25 331.30,267.89 339.00,267.17
             339.00,267.17 350.00,266.00 350.00,266.00 Z
           M 408.00,285.00
           C 405.19,273.23 392.93,261.87 381.00,260.00
             381.00,260.00 395.00,280.00 395.00,280.00
             395.00,280.00 352.00,286.00 352.00,286.00
             359.04,294.78 365.57,291.33 375.00,289.45
             384.53,287.54 398.38,285.44 408.00,285.00 Z
           M 478.00,267.00
           C 472.55,271.80 467.86,279.07 463.58,285.00
             461.46,287.93 458.33,291.53 457.43,295.00
             455.74,301.46 457.67,316.91 458.00,324.00
             461.92,323.18 467.04,323.43 466.36,329.00
             465.99,331.99 461.51,337.88 459.99,341.00
             457.96,345.17 456.32,359.75 458.00,364.00
             458.00,364.00 478.00,334.00 478.00,334.00
             480.51,330.25 486.04,323.07 486.98,319.00
             487.77,315.62 486.59,307.67 486.15,304.00
             484.65,291.42 482.01,279.02 478.00,267.00 Z
           M 71.00,268.00
           C 52.39,278.70 42.00,292.24 42.00,314.00
             46.66,311.65 50.29,307.63 54.00,304.01
             56.64,301.44 59.83,298.78 62.07,295.91
             67.75,288.66 70.80,277.12 71.00,268.00 Z
           M 214.00,286.00
           C 210.06,287.73 204.24,289.06 201.43,292.22
             199.23,294.69 199.15,296.97 198.15,298.85
             197.37,300.33 196.23,301.78 194.36,300.83
             192.16,299.71 191.72,295.91 189.49,293.10
             186.23,288.98 182.37,288.64 180.15,287.37
             178.78,286.58 177.18,285.28 178.17,283.52
             179.67,280.85 185.38,282.04 189.49,276.89
             193.06,272.44 190.92,269.07 197.00,267.00
             198.44,271.32 199.45,275.51 203.11,278.58
             207.78,282.52 210.75,280.17 214.00,286.00 Z
           M 270.06,267.78
           C 279.34,266.48 281.09,276.72 274.89,279.26
             267.88,282.13 261.85,272.63 270.06,267.78 Z
           M 100.00,285.00
           C 91.21,290.89 80.05,299.56 77.00,310.00
             87.61,306.30 102.72,298.61 100.00,285.00 Z
           M 77.00,291.00
           C 77.00,291.00 76.00,291.00 76.00,291.00
             76.00,291.00 77.00,292.00 77.00,292.00
             77.00,292.00 77.00,291.00 77.00,291.00 Z
           M 292.04,290.78
           C 301.52,289.45 301.66,300.27 295.94,302.39
             289.49,304.77 282.81,295.98 292.04,290.78 Z
           M 412.00,291.00
           C 404.85,291.16 380.97,294.24 375.00,297.00
             389.22,299.55 398.36,297.11 412.00,296.00
             412.00,296.00 412.00,291.00 412.00,291.00 Z
           M 471.21,306.78
           C 480.30,305.42 480.12,315.46 474.81,317.36
             469.50,319.26 463.61,311.79 471.21,306.78 Z
           M 114.00,329.00
           C 98.37,333.47 79.08,351.55 72.00,366.00
             88.23,362.73 102.20,355.11 110.22,340.00
             112.52,335.66 113.48,333.92 114.00,329.00 Z
           M 153.04,331.78
           C 163.54,330.32 164.19,342.84 156.96,344.86
             150.19,346.76 143.45,337.18 153.04,331.78 Z
           M 351.00,430.00
           C 350.80,427.73 351.05,425.12 350.25,423.00
             348.58,418.51 335.12,406.12 331.00,402.00
             331.00,402.00 283.00,355.00 283.00,355.00
             276.62,348.62 265.96,336.12 258.00,333.00
             258.00,333.00 239.00,352.00 239.00,352.00
             239.00,352.00 190.00,400.00 190.00,400.00
             190.00,400.00 176.00,414.00 176.00,414.00
             176.00,414.00 168.89,422.72 168.89,422.72
             168.89,422.72 168.89,430.00 168.89,430.00
             168.89,430.00 214.00,430.00 214.00,430.00
             215.54,421.54 216.59,415.27 221.79,408.00
             236.18,387.89 264.65,380.37 285.00,396.39
             297.04,405.87 301.27,415.48 304.00,430.00
             304.00,430.00 351.00,430.00 351.00,430.00 Z
           M 354.00,335.00
           C 353.76,339.61 358.11,343.66 360.92,347.00
             372.28,360.50 380.72,363.67 397.00,368.00
             394.92,361.91 390.82,359.30 386.00,355.28
             376.30,347.20 365.40,340.40 354.00,335.00 Z
           M 487.00,341.00
           C 487.00,341.00 472.85,361.00 472.85,361.00
             472.85,361.00 456.73,384.00 456.73,384.00
             456.73,384.00 455.00,397.00 455.00,397.00
             461.04,392.68 467.06,386.26 472.31,380.92
             475.09,378.09 478.51,375.43 480.45,371.91
             481.81,369.45 482.24,366.67 483.04,364.00
             486.05,353.91 486.99,351.85 487.00,341.00 Z
           M 29.00,370.00
           C 29.00,370.00 28.00,370.00 28.00,370.00
             28.00,370.00 29.00,371.00 29.00,371.00
             29.00,371.00 29.00,370.00 29.00,370.00 Z
           M 30.00,371.00
           C 27.74,377.18 33.96,393.59 35.00,401.00
             47.21,393.18 35.06,379.43 30.00,371.00 Z
           M 480.00,389.00
           C 480.00,389.00 462.25,405.29 462.25,405.29
             462.25,405.29 453.00,415.00 453.00,415.00
             453.00,415.00 448.12,433.00 448.12,433.00
             448.12,433.00 440.00,464.00 440.00,464.00
             441.76,463.98 444.19,464.08 445.82,463.40
             449.65,461.80 454.52,451.82 456.80,448.00
             466.28,432.08 476.34,407.18 480.00,389.00 Z
           M 97.00,393.00
           C 86.37,403.65 85.63,428.96 88.26,443.00
             89.29,448.50 91.30,459.05 98.01,459.84
             105.92,460.76 107.12,449.72 108.08,444.00
             110.96,426.87 106.42,407.48 97.00,393.00 Z
           M 253.00,400.00
           C 237.14,403.62 230.52,411.86 226.00,427.00
             226.00,427.00 254.00,427.00 254.00,427.00
             254.00,427.00 253.00,400.00 253.00,400.00 Z
           M 292.00,427.00
           C 288.65,412.34 279.13,402.37 264.00,400.00
             264.00,400.00 264.00,419.00 264.00,419.00
             264.00,419.00 265.02,425.40 265.02,425.40
             265.02,425.40 273.00,427.00 273.00,427.00
             273.00,427.00 292.00,427.00 292.00,427.00 Z
           M 130.00,401.00
           C 126.64,402.73 125.44,404.10 123.02,407.00
             116.92,414.30 119.34,417.64 119.91,426.00
             120.20,430.25 119.40,433.97 121.00,438.00
             125.64,424.70 129.87,415.80 130.00,401.00 Z
           M 48.00,403.00
           C 46.23,405.68 42.60,411.98 42.26,415.00
             41.60,420.89 51.71,439.36 55.01,445.00
             57.16,448.66 62.59,458.15 66.09,459.96
             68.82,461.37 78.89,459.88 82.00,459.00
             82.00,459.00 61.01,425.00 61.01,425.00
             61.01,425.00 48.00,403.00 48.00,403.00 Z
           M 398.21,417.78
           C 407.46,416.41 408.42,427.09 401.95,429.00
             396.31,430.67 390.99,422.55 398.21,417.78 Z
           M 254.00,438.00
           C 254.00,438.00 226.00,438.00 226.00,438.00
             230.31,452.43 238.60,461.62 254.00,464.00
             254.00,464.00 254.00,438.00 254.00,438.00 Z
           M 291.00,438.00
           C 291.00,438.00 264.00,438.00 264.00,438.00
             264.00,438.00 264.00,464.00 264.00,464.00
             277.71,461.88 289.69,452.45 291.00,438.00 Z
           M 351.00,442.00
           C 351.00,442.00 311.00,442.00 311.00,442.00
             308.94,442.00 305.39,441.74 303.70,442.99
             302.15,444.14 300.66,448.16 299.73,450.00
             297.86,453.72 295.29,457.80 292.54,460.91
             283.94,470.64 270.90,476.28 258.00,475.99
             243.94,475.67 233.30,469.41 224.18,459.00
             217.74,451.64 216.79,444.84 214.30,442.99
             212.61,441.74 209.06,442.00 207.00,442.00
             207.00,442.00 168.00,442.00 168.00,442.00
             168.00,442.00 168.00,460.00 168.00,460.00
             168.02,462.24 167.73,465.40 169.60,467.02
             171.20,468.41 182.19,470.88 185.00,471.72
             195.15,474.74 205.47,478.65 215.00,483.26
             215.00,483.26 249.00,500.45 249.00,500.45
             256.35,503.05 260.47,501.23 265.00,502.65
             271.42,504.66 274.64,511.46 280.00,510.02
             282.96,509.22 294.43,499.25 298.00,496.64
             306.39,490.52 320.30,482.78 330.00,479.06
             333.50,477.72 347.55,473.91 349.26,472.19
             351.37,470.08 351.00,465.79 351.00,463.00
             351.00,463.00 351.00,442.00 351.00,442.00 Z
           M 338.15,459.03
           C 347.21,456.13 348.71,466.01 342.89,468.73
             337.97,471.04 331.65,464.79 338.15,459.03 Z
           M 317.14,466.03
           C 326.06,463.15 327.14,473.27 322.72,475.97
             317.76,479.00 310.06,472.30 317.14,466.03 Z
           M 220.00,499.14
           C 192.86,483.55 164.64,477.90 134.00,474.83
             134.00,474.83 113.00,473.00 113.00,473.00
             113.00,473.00 91.00,473.00 91.00,473.00
             91.00,473.00 75.00,474.00 75.00,474.00
             77.53,477.98 82.96,486.39 88.04,486.57
             88.04,486.57 117.00,484.00 117.00,484.00
             133.53,483.97 147.73,484.77 164.00,488.21
             179.69,491.53 195.94,499.76 211.00,499.14
             214.43,499.18 216.69,500.10 220.00,499.14 Z
           M 297.18,474.78
           C 305.59,473.52 306.13,483.45 300.89,485.38
             295.27,487.46 289.28,479.80 297.18,474.78 Z
           M 424.00,476.00
           C 397.40,476.08 368.66,492.25 347.00,506.67
             340.12,511.24 329.11,516.97 324.00,523.00
             328.52,524.14 336.53,525.78 341.00,524.49
             341.00,524.49 362.00,511.60 362.00,511.60
             362.00,511.60 398.00,492.31 398.00,492.31
             398.00,492.31 419.73,484.42 419.73,484.42
             422.12,482.45 423.04,478.84 424.00,476.00 Z
           M 438.00,476.00
           C 438.00,476.00 437.00,476.00 437.00,476.00
             437.00,476.00 438.00,477.00 438.00,477.00
             438.00,477.00 438.00,476.00 438.00,476.00 Z
           M 368.00,480.00
           C 344.04,486.05 331.68,488.33 310.00,502.05
             304.24,505.70 296.11,509.83 293.00,516.00
             293.00,516.00 308.00,519.40 308.00,519.40
             308.00,519.40 319.00,512.72 319.00,512.72
             319.00,512.72 340.00,499.00 340.00,499.00
             340.00,499.00 331.00,492.00 331.00,492.00
             334.04,492.86 339.41,495.45 342.00,495.40
             344.69,495.35 347.69,493.46 350.00,492.15
             355.02,489.31 365.15,484.68 368.00,480.00 Z
           M 279.06,488.79
           C 287.86,487.94 288.45,498.30 282.81,500.16
             277.35,501.96 270.85,493.58 279.06,488.79 Z
           M 386.00,489.00
           C 386.00,489.00 396.00,488.00 396.00,488.00
             393.15,492.51 389.84,492.22 386.00,489.00 Z
           M 239.00,538.00
           C 236.74,534.48 233.42,533.53 230.00,531.25
             230.00,531.25 211.00,519.15 211.00,519.15
             188.66,506.38 158.97,496.04 133.00,496.00
             133.00,496.00 110.00,496.00 110.00,496.00
             110.00,496.00 97.00,497.00 97.00,497.00
             100.04,501.24 105.08,507.00 110.00,508.99
             110.00,508.99 136.00,511.42 136.00,511.42
             156.92,514.28 171.97,517.33 192.00,524.34
             192.00,524.34 224.00,537.39 224.00,537.39
             227.55,538.30 235.02,538.00 239.00,538.00 Z
           M 415.00,499.00
           C 405.46,499.53 386.51,509.90 378.00,515.00
             382.49,517.88 384.96,516.41 390.00,516.00
             390.00,516.00 390.00,519.00 390.00,519.00
             390.00,519.00 376.00,516.66 376.00,516.66
             376.00,516.66 357.00,526.00 357.00,526.00
             363.25,526.00 373.25,526.50 379.00,525.10
             390.14,522.39 408.02,508.05 415.00,499.00 Z
           M 358.00,538.00
           C 322.69,538.00 298.91,530.64 266.00,519.67
             255.70,516.23 245.69,512.17 235.00,510.00
             230.19,509.03 224.67,508.15 220.00,510.00
             220.00,510.00 257.00,534.74 257.00,534.74
             273.22,543.13 304.75,550.40 323.00,549.99
             331.41,549.80 341.27,546.99 349.00,543.72
             352.71,542.15 355.75,541.48 358.00,538.00 Z
           M 154.00,526.00
           C 154.00,526.00 137.00,525.00 137.00,525.00
             139.78,530.56 148.78,535.43 155.00,535.88
             155.00,535.88 164.00,535.18 164.00,535.18
             164.00,535.18 174.00,536.00 174.00,536.00
             174.00,536.00 174.00,539.00 174.00,539.00
             174.00,539.00 159.00,540.00 159.00,540.00
             170.56,545.92 179.45,545.98 192.00,543.92
             196.26,543.22 200.24,543.19 204.00,541.00
             204.00,541.00 190.00,536.34 190.00,536.34
             190.00,536.34 167.00,529.67 167.00,529.67
             167.00,529.67 149.00,529.00 149.00,529.00
             149.00,529.00 154.00,526.00 154.00,526.00 Z
           M 291.00,559.00
           C 291.00,559.00 257.00,551.44 257.00,551.44
             245.46,549.61 233.66,549.87 222.00,550.00
             216.42,550.07 200.25,551.25 196.00,554.00
             228.88,560.19 228.86,561.00 263.00,561.00
             270.63,561.00 284.24,561.77 291.00,559.00 Z" />
</svg>
